<?xml version="1.0" standalone="no"?>
<!DOCTYPE svg PUBLIC "-//W3C//DTD SVG 20010904//EN"
 "http://www.w3.org/TR/2001/REC-SVG-20010904/DTD/svg10.dtd">
<svg version="1.0" xmlns="http://www.w3.org/2000/svg"
 width="797.000000pt" height="797.000000pt" viewBox="0 0 797.000000 797.000000"
 preserveAspectRatio="xMidYMid meet">
<metadata>
Created by potrace 1.14, written by Peter Selinger 2001-2017
</metadata>
<g transform="translate(0.000000,797.000000) scale(0.100000,-0.100000)"
fill="#000000" stroke="none">
<path d="M2686 7955 c5 -13 4 -16 -4 -11 -24 15 -54 16 -48 1 5 -14 -22 -14
-44 0 -6 4 -7 -1 -3 -12 6 -15 4 -16 -9 -5 -13 10 -18 10 -24 1 -5 -8 -3 -9 6
-4 8 5 11 4 7 -2 -4 -6 -18 -8 -32 -5 -16 3 -25 0 -25 -9 0 -7 -3 -9 -7 -6 -3
4 -12 -1 -20 -11 -8 -9 -12 -11 -8 -5 4 9 1 11 -9 7 -9 -3 -13 -10 -10 -15 3
-6 -6 -8 -21 -5 -23 4 -25 3 -14 -10 10 -12 9 -13 -5 -8 -10 4 -16 1 -16 -7 0
-11 -3 -11 -10 1 -8 13 -10 12 -10 -2 0 -19 -19 -20 -33 -3 -5 6 -7 4 -6 -5 3
-29 -1 -41 -12 -35 -6 4 -17 -1 -25 -11 -9 -11 -13 -14 -10 -9 2 6 -4 11 -14
11 -13 0 -16 -4 -9 -12 6 -8 4 -16 -8 -25 -14 -11 -15 -11 -9 -1 7 11 4 12
-13 3 -11 -7 -20 -15 -20 -19 3 -19 -2 -25 -11 -12 -8 13 -10 13 -10 -2 0 -12
-5 -15 -17 -11 -11 4 -14 3 -9 -5 4 -7 1 -12 -9 -12 -9 0 -13 -4 -10 -10 3 -5
1 -10 -5 -10 -6 0 -9 -4 -6 -9 3 -5 -9 -16 -28 -25 -33 -15 -66 -46 -50 -46 4
0 -2 -9 -14 -21 -12 -11 -20 -24 -18 -28 3 -5 -7 -6 -22 -4 -18 3 -23 2 -14
-5 17 -12 7 -35 -21 -48 -12 -5 -21 -16 -19 -23 2 -8 -3 -11 -12 -8 -10 4 -13
1 -10 -8 3 -8 -1 -24 -10 -37 -11 -15 -16 -18 -17 -8 0 8 -6 2 -12 -15 -21
-52 -37 -75 -55 -75 -15 0 -15 -2 -2 -10 11 -7 11 -10 2 -10 -7 0 -10 -4 -7
-10 5 -9 -6 -14 -26 -12 -3 1 -5 -10 -3 -23 1 -14 -3 -28 -8 -32 -6 -3 -8 -1
-4 5 3 6 2 14 -4 17 -6 4 -10 3 -9 -2 3 -13 -13 -64 -18 -59 -7 6 -33 -19 -33
-32 0 -6 -7 -13 -15 -16 -13 -4 -14 -10 -5 -26 6 -11 7 -20 3 -19 -27 5 -35
-1 -23 -17 8 -8 9 -14 4 -13 -24 4 -36 -2 -30 -17 6 -15 4 -15 -11 -3 -9 8
-14 9 -10 2 4 -6 3 -14 -3 -18 -6 -4 -8 -11 -5 -16 6 -8 -8 -13 -27 -10 -5 0
-7 -2 -6 -7 5 -19 -15 -53 -28 -48 -11 4 -12 2 -5 -13 9 -16 7 -18 -15 -15
-22 2 -23 0 -12 -14 10 -12 10 -14 0 -8 -7 4 -14 1 -18 -8 -3 -9 -12 -12 -21
-9 -11 4 -14 2 -9 -5 4 -7 1 -12 -9 -12 -11 0 -15 -5 -12 -14 4 -11 0 -13 -15
-11 -11 3 -18 2 -15 -1 3 -4 -8 -18 -24 -31 -17 -14 -28 -32 -25 -39 3 -8 -2
-11 -15 -9 -12 3 -17 0 -13 -7 5 -8 1 -9 -10 -5 -14 5 -15 3 -6 -13 9 -16 8
-18 -5 -14 -9 4 -23 -2 -34 -15 -10 -11 -21 -18 -25 -14 -3 3 -6 -2 -6 -13 0
-16 -2 -17 -10 -4 -8 13 -10 13 -10 -2 0 -9 -5 -20 -12 -24 -6 -4 -8 -3 -5 3
3 5 0 10 -7 10 -7 0 -13 -7 -12 -16 1 -10 -6 -15 -17 -13 -15 3 -18 -1 -13
-20 3 -13 3 -17 0 -10 -3 6 -10 12 -15 12 -6 0 -7 -4 -4 -10 4 -6 -1 -7 -11
-3 -14 5 -16 3 -11 -12 6 -15 5 -16 -8 -5 -13 11 -16 11 -13 -1 2 -8 -4 -13
-14 -13 -11 1 -15 -5 -13 -18 4 -16 2 -18 -10 -8 -12 10 -15 9 -15 -5 0 -14
-3 -15 -15 -5 -13 11 -14 10 -8 -6 6 -17 5 -17 -10 -5 -15 12 -17 12 -11 -3 5
-12 2 -15 -12 -9 -12 4 -15 3 -10 -5 4 -7 1 -12 -9 -12 -9 0 -13 -4 -10 -10 3
-5 1 -10 -5 -10 -6 0 -8 -5 -4 -12 4 -7 3 -8 -5 -4 -6 4 -9 12 -6 17 3 5 -1 6
-9 3 -9 -3 -14 -10 -11 -14 3 -4 -3 -14 -12 -21 -10 -8 -14 -9 -10 -2 4 6 3
14 -3 18 -5 3 -10 -3 -10 -14 0 -14 -8 -21 -27 -23 -17 -2 -27 -8 -25 -16 1
-8 -2 -11 -7 -8 -14 9 -42 -5 -34 -18 3 -6 -3 -3 -15 7 -20 19 -21 18 -15 -4
4 -15 3 -20 -5 -15 -7 4 -12 2 -12 -5 0 -7 -3 -10 -6 -7 -3 4 -17 0 -31 -7
-15 -8 -31 -12 -37 -9 -6 3 -2 -2 9 -11 20 -17 20 -17 -2 -11 -12 4 -24 2 -28
-5 -6 -8 -10 -7 -16 2 -7 11 -9 10 -9 -4 0 -10 -4 -16 -9 -12 -6 3 -25 -3 -43
-13 -18 -10 -39 -18 -46 -16 -7 1 -8 0 -2 -3 19 -9 10 -24 -11 -18 -15 5 -19
4 -15 -4 4 -7 -1 -11 -13 -11 -12 0 -21 -5 -21 -11 0 -6 -9 -9 -20 -6 -11 3
-18 1 -14 -4 3 -5 -2 -9 -10 -9 -9 0 -16 -8 -17 -17 0 -11 -3 -13 -6 -5 -2 6
-11 12 -19 12 -9 0 -12 -4 -9 -10 6 -10 2 -12 -32 -13 -10 -1 -23 -8 -29 -16
-6 -8 -18 -11 -27 -8 -9 3 -16 3 -16 -1 3 -18 -2 -32 -11 -32 -6 0 -19 -9 -29
-19 -14 -14 -16 -22 -7 -31 8 -10 8 -11 -2 -6 -8 5 -11 0 -8 -16 3 -13 5 -27
5 -31 1 -5 5 -6 10 -3 5 3 9 0 8 -7 -1 -32 4 -48 13 -42 6 3 10 0 10 -8 0 -10
7 -13 20 -10 14 4 20 0 20 -11 0 -10 4 -14 10 -11 5 3 10 0 10 -7 0 -9 3 -9
10 2 7 11 10 12 10 2 0 -9 7 -11 20 -7 13 4 20 2 18 -5 -2 -7 5 -14 15 -15 9
-2 15 1 11 6 -3 5 0 9 5 9 6 0 11 -4 11 -9 0 -10 19 -9 38 2 7 5 12 3 12 -5 0
-9 3 -9 10 2 9 13 10 13 10 0 0 -12 2 -12 9 -1 5 7 11 9 14 4 5 -8 62 -10 62
-3 0 4 43 10 82 12 26 1 39 6 35 13 -3 6 0 6 9 -1 19 -15 91 -12 97 4 2 7 9 9
14 6 21 -13 76 -10 71 4 -3 6 0 12 6 12 6 0 11 -5 11 -12 0 -6 6 -4 13 7 9 12
16 14 21 7 4 -6 12 -9 19 -7 7 3 30 7 52 9 22 3 40 5 40 6 0 2 14 5 53 14 12
3 27 8 32 11 6 3 10 -2 10 -11 0 -16 1 -16 16 2 8 10 13 13 9 7 -4 -9 -1 -11
9 -7 9 3 13 10 10 15 -8 13 10 11 25 -3 8 -7 11 -8 8 -2 -4 7 5 11 24 12 17 0
36 5 43 11 9 7 16 7 24 -1 9 -9 12 -9 12 3 0 12 2 12 10 -1 7 -11 10 -11 10
-2 0 7 5 10 10 7 6 -4 18 -1 27 7 12 9 15 9 9 1 -4 -7 -2 -13 3 -13 6 0 11 4
11 9 0 6 9 8 20 6 11 -2 20 2 20 8 0 7 4 6 10 -3 7 -11 10 -11 10 -2 0 7 4 11
9 8 5 -4 12 0 14 6 4 10 8 10 15 -1 7 -9 12 -10 16 -2 4 6 13 11 19 11 7 0 6
-4 -3 -11 -12 -9 -12 -10 3 -5 10 3 21 6 23 6 3 0 3 4 -1 9 -3 5 -1 12 5 16 5
3 10 1 10 -6 0 -8 5 -7 17 2 11 10 14 10 9 2 -10 -17 9 -17 23 0 6 8 23 12 41
9 20 -3 30 0 30 9 0 8 6 5 15 -7 15 -18 15 -18 8 0 -4 13 -3 17 5 12 7 -4 12
-2 12 6 0 9 3 9 10 -2 8 -12 10 -12 10 -1 0 8 3 11 7 8 3 -4 12 -2 20 5 11 9
12 7 6 -8 -6 -16 -5 -17 9 -4 9 8 14 18 12 21 -2 4 12 3 31 -1 19 -4 33 -5 31
-1 -2 3 2 12 10 18 8 8 15 9 19 3 4 -6 13 -7 23 -1 9 4 23 6 30 4 6 -3 12 0
12 6 0 6 11 11 24 11 14 0 28 5 31 10 3 6 11 10 17 10 6 0 5 -7 -3 -17 -13
-17 -12 -17 6 -2 23 18 69 24 59 7 -4 -5 4 -3 18 6 21 13 27 14 51 1 19 -9 29
-10 33 -3 5 7 2 8 -6 3 -8 -5 -11 -4 -7 2 9 14 59 4 50 -11 -3 -6 4 -2 17 9
13 11 20 15 17 9 -4 -7 0 -15 9 -18 8 -3 12 -2 9 4 -3 6 1 10 10 10 10 0 13 5
9 12 -4 7 -3 8 4 4 6 -4 8 -14 5 -24 -6 -15 -5 -15 10 -3 13 11 17 11 17 1 0
-8 3 -10 6 -7 4 3 16 2 27 -4 14 -8 18 -8 13 0 -4 6 -3 11 3 11 5 0 12 -6 14
-12 4 -10 6 -10 6 0 1 9 8 9 32 -3 17 -9 37 -14 45 -11 8 3 14 -1 14 -9 0 -8
5 -15 11 -15 5 0 7 4 4 10 -3 6 1 7 9 4 9 -3 16 -10 16 -16 0 -5 4 -7 8 -4 5
3 15 -4 22 -14 11 -15 17 -17 29 -7 9 6 13 8 9 3 -4 -5 1 -16 10 -25 11 -10
12 -12 2 -6 -8 5 -3 -4 11 -20 20 -22 25 -35 19 -50 -4 -12 -3 -26 4 -34 8
-11 8 -13 -1 -7 -16 9 -17 -6 -2 -21 8 -8 4 -17 -13 -33 -20 -20 -21 -22 -3
-16 17 6 16 4 -5 -20 -14 -15 -19 -24 -12 -20 6 4 12 3 12 -2 0 -6 -7 -13 -16
-16 -9 -4 -14 -13 -10 -21 5 -14 -5 -20 -27 -16 -5 1 -6 -3 -2 -9 3 -6 12 -8
18 -4 7 3 5 0 -4 -8 -9 -7 -18 -17 -20 -23 -2 -5 -7 -9 -10 -8 -4 1 -6 -5 -5
-15 0 -9 -4 -16 -11 -15 -7 2 -10 -4 -7 -12 4 -8 1 -15 -6 -15 -10 0 -10 -3 0
-15 11 -13 10 -14 -5 -8 -15 5 -17 3 -12 -12 7 -16 5 -16 -10 -4 -11 9 -14 10
-9 2 4 -7 2 -13 -3 -13 -6 0 -11 -8 -11 -17 -1 -22 -25 -55 -33 -46 -6 6 -11
-11 -8 -29 0 -4 -6 -5 -15 -1 -8 3 -14 2 -13 -3 4 -17 -13 -44 -24 -37 -6 4
-8 0 -4 -10 4 -11 1 -17 -9 -17 -8 0 -12 -5 -9 -10 3 -6 -1 -13 -9 -16 -9 -3
-14 -10 -11 -14 3 -4 -2 -11 -11 -14 -8 -3 -12 -11 -8 -17 4 -8 3 -9 -4 -5
-19 12 -35 -4 -21 -20 7 -9 8 -14 3 -13 -23 4 -35 -3 -44 -27 -6 -14 -14 -23
-19 -19 -6 3 -8 -3 -6 -14 2 -13 -1 -18 -10 -15 -7 3 -16 0 -21 -7 -5 -8 -3
-10 6 -4 9 5 11 4 6 -3 -4 -7 -15 -12 -24 -13 -12 0 -13 -2 -4 -6 10 -4 8 -9
-7 -20 -12 -8 -19 -18 -16 -23 3 -4 -6 -7 -20 -5 -19 2 -23 -1 -15 -10 13 -16
-4 -30 -22 -19 -7 4 -10 3 -5 -1 4 -5 -1 -18 -10 -29 -17 -20 -17 -20 2 -7 11
8 1 -4 -22 -26 -24 -22 -43 -49 -43 -59 0 -16 -2 -17 -10 -4 -8 12 -10 10 -10
-10 0 -20 -2 -22 -10 -10 -7 11 -10 11 -10 2 0 -8 -5 -10 -12 -6 -10 6 -10 5
-1 -8 18 -21 -16 -54 -37 -35 -10 9 -11 9 -6 -1 4 -7 0 -15 -11 -19 -10 -4
-24 -14 -31 -22 -8 -9 -10 -10 -7 -2 5 9 -1 8 -19 -4 -14 -10 -26 -22 -26 -29
0 -6 -4 -5 -9 3 -7 11 -10 9 -16 -9 -5 -16 -10 -19 -15 -10 -5 9 -9 9 -14 1
-4 -6 -4 -11 1 -11 11 0 -40 -35 -52 -35 -5 -1 -9 -6 -8 -13 2 -6 -4 -9 -12
-6 -9 4 -15 0 -15 -10 0 -9 -6 -13 -15 -10 -8 4 -17 -1 -21 -10 -3 -9 -10 -13
-15 -10 -5 3 -9 -2 -9 -10 0 -9 -9 -21 -20 -28 -11 -7 -20 -20 -20 -28 0 -12
-2 -12 -9 -2 -6 10 -10 8 -14 -8 -4 -14 -10 -19 -18 -14 -8 4 -10 3 -5 -4 4
-7 2 -12 -4 -12 -7 0 -10 -7 -6 -15 5 -13 2 -14 -17 -4 -20 11 -21 11 -8 -5
12 -14 12 -16 -4 -10 -12 5 -16 4 -12 -3 4 -6 -1 -17 -10 -24 -14 -12 -16 -12
-8 0 5 10 4 12 -4 7 -6 -4 -9 -11 -6 -16 3 -5 -2 -16 -11 -24 -8 -9 -13 -16
-9 -16 6 0 -6 -15 -47 -60 -14 -16 -28 -27 -30 -24 -3 2 -5 -3 -5 -11 0 -8 5
-11 11 -8 6 3 1 -4 -11 -16 -13 -12 -23 -26 -23 -32 0 -6 -6 -7 -12 -3 -10 6
-10 4 0 -8 10 -13 10 -18 1 -24 -8 -4 -9 -3 -5 4 4 7 4 12 1 12 -3 0 -11 -13
-16 -30 -6 -16 -17 -30 -24 -30 -9 0 -11 -8 -7 -22 3 -13 1 -19 -6 -15 -6 5
-9 -2 -8 -18 2 -13 0 -23 -3 -21 -3 2 -12 -2 -19 -10 -10 -11 -10 -14 0 -14 8
-1 7 -5 -4 -14 -21 -15 -23 -27 -5 -22 6 1 9 1 4 -1 -4 -3 -5 -9 -2 -14 4 -5
-1 -6 -10 -3 -9 4 -15 3 -14 -2 4 -22 -2 -35 -13 -28 -7 4 -8 3 -4 -5 4 -6 2
-19 -6 -28 -11 -14 -11 -16 1 -8 11 6 12 5 5 -6 -5 -8 -7 -22 -6 -32 2 -9 -3
-20 -12 -23 -8 -3 -12 -12 -9 -20 4 -10 0 -12 -13 -7 -18 7 -18 6 -2 -11 21
-21 23 -27 5 -23 -6 1 -11 -4 -9 -12 1 -7 -3 -19 -9 -27 -9 -11 -9 -14 0 -14
7 0 9 -5 6 -10 -4 -6 -10 -8 -14 -6 -4 3 -8 -1 -8 -9 0 -8 5 -12 11 -9 6 3 2
-2 -8 -10 -11 -9 -14 -16 -8 -16 7 0 12 -5 12 -11 0 -5 -6 -7 -12 -3 -10 6
-10 5 -1 -7 9 -11 8 -18 -1 -31 -7 -10 -16 -15 -20 -11 -4 4 -4 0 0 -10 3 -9
11 -14 18 -10 6 4 3 -6 -8 -21 -10 -16 -13 -25 -7 -22 6 4 11 2 11 -4 0 -6 -7
-13 -16 -17 -13 -5 -13 -7 -2 -14 10 -7 11 -9 0 -9 -7 0 -10 -5 -7 -10 4 -6
12 -8 18 -4 7 3 5 0 -3 -8 -9 -8 -14 -26 -12 -45 2 -18 -1 -33 -6 -33 -12 0
-10 -19 2 -39 6 -9 5 -12 -1 -8 -6 4 -10 -4 -10 -18 -1 -16 4 -22 11 -18 6 4
5 -1 -3 -11 -13 -15 -13 -19 0 -27 8 -5 9 -9 4 -9 -6 0 -11 -9 -12 -20 -1 -13
2 -18 10 -13 7 3 4 -3 -7 -15 -17 -20 -18 -22 -2 -28 14 -5 15 -9 4 -15 -11
-7 -10 -11 2 -19 10 -6 11 -10 3 -10 -7 0 -13 -5 -13 -11 0 -5 4 -7 10 -4 5 3
10 0 11 -7 0 -7 2 -23 3 -36 2 -17 -1 -21 -13 -17 -12 5 -12 2 2 -13 9 -10 14
-22 10 -25 -3 -4 -1 -7 7 -7 10 0 10 -4 -1 -17 -12 -15 -12 -16 4 -10 15 6 16
4 7 -13 -7 -13 -7 -21 2 -26 7 -5 8 -3 3 6 -6 9 -4 11 4 5 9 -5 10 -10 2 -18
-18 -18 -13 -31 6 -16 15 13 15 12 4 -8 -8 -16 -8 -23 -1 -23 6 0 8 -4 5 -10
-3 -5 -1 -10 5 -10 6 0 8 -4 5 -10 -3 -6 -2 -10 4 -10 6 0 8 -7 5 -15 -4 -8
-1 -15 6 -15 9 0 9 -4 -1 -17 -10 -11 -10 -14 -2 -9 8 4 13 2 13 -4 0 -6 5 -8
13 -4 8 5 8 2 -2 -9 -9 -11 -10 -17 -2 -17 6 0 11 -7 11 -16 0 -9 5 -12 13 -8
9 5 9 4 0 -6 -9 -10 -8 -16 6 -29 9 -9 12 -12 5 -8 -7 5 -15 2 -20 -5 -4 -7
-4 -10 1 -6 11 10 47 -33 41 -49 -3 -7 3 -18 13 -25 10 -7 19 -17 21 -23 1 -5
6 -9 11 -8 4 2 6 -4 3 -12 -4 -8 -2 -15 4 -15 6 0 8 -10 5 -22 -4 -19 -3 -20
6 -8 9 13 11 13 11 -2 0 -10 9 -27 21 -39 11 -11 18 -27 15 -35 -4 -10 -2 -12
6 -8 8 5 9 2 5 -10 -5 -12 -3 -17 5 -14 7 3 21 -4 31 -15 19 -19 18 -19 -5
-12 -22 7 -22 7 -3 -8 11 -8 24 -13 28 -10 5 3 6 -4 2 -16 -3 -12 -3 -21 2
-20 20 3 27 -2 13 -11 -12 -8 -10 -10 10 -10 20 0 22 -2 10 -10 -13 -8 -12
-10 3 -10 9 0 17 -5 17 -11 0 -5 5 -7 10 -4 5 3 10 1 10 -4 0 -6 -6 -11 -12
-12 -7 0 -4 -4 7 -8 11 -5 20 -14 20 -22 1 -8 7 -13 14 -11 9 2 11 -3 7 -13
-3 -9 -2 -14 3 -11 5 3 11 -1 15 -9 3 -8 13 -15 21 -15 9 0 13 -4 10 -10 -3
-5 -1 -10 5 -10 6 0 8 -4 5 -10 -3 -6 4 -10 17 -10 18 0 20 -2 8 -10 -12 -8
-12 -10 5 -10 17 0 17 -2 5 -10 -13 -8 -12 -10 4 -10 11 0 16 -5 13 -14 -4
-10 1 -13 17 -12 18 2 22 -2 20 -26 -1 -15 2 -26 7 -23 4 3 6 13 3 23 -3 9 2
5 11 -10 15 -27 32 -40 20 -15 -4 6 1 3 9 -7 9 -11 16 -16 17 -10 0 5 4 -1 10
-14 5 -13 13 -21 19 -17 6 3 7 -1 4 -10 -4 -9 -3 -15 2 -14 18 3 34 -1 33 -8
-3 -19 2 -33 11 -33 5 0 6 8 3 18 -6 16 -6 16 10 0 9 -9 17 -25 17 -35 0 -15
2 -16 10 -3 7 11 10 11 10 2 0 -7 5 -10 10 -7 6 4 10 3 9 -2 -1 -4 1 -16 6
-26 6 -15 10 -16 16 -5 7 10 9 10 9 1 0 -7 6 -13 14 -13 7 0 20 -8 27 -17 13
-17 13 -17 -6 -3 -19 14 -19 14 -6 -2 7 -10 17 -16 21 -13 5 3 11 1 15 -5 4
-6 11 -7 17 -4 7 5 9 1 5 -9 -4 -12 -2 -14 10 -10 12 5 14 3 8 -7 -6 -10 -4
-12 8 -7 10 4 17 2 17 -4 0 -6 7 -8 16 -5 8 3 12 2 9 -4 -3 -6 -1 -10 5 -10 6
0 9 -4 5 -9 -3 -6 6 -8 22 -5 25 5 26 4 10 -8 -17 -13 -17 -14 2 -16 44 -4 51
-6 51 -14 0 -5 5 -6 10 -3 6 4 9 1 8 -7 -2 -7 4 -12 14 -10 13 2 16 -2 11 -15
-6 -16 -5 -16 10 -4 14 11 18 11 23 -3 4 -10 13 -15 21 -12 8 3 11 1 8 -4 -3
-6 1 -10 9 -10 9 0 16 -4 16 -8 0 -5 12 -15 27 -23 38 -19 51 -23 33 -10 -11
8 -11 11 -2 11 7 0 15 -7 19 -16 5 -13 7 -13 14 -2 6 9 9 9 9 1 0 -7 10 -17
21 -24 12 -6 19 -7 15 -1 -3 6 4 5 19 -1 14 -7 23 -18 20 -24 -5 -15 16 -13
27 2 4 6 8 2 8 -8 0 -10 4 -15 10 -12 5 3 10 0 11 -7 0 -7 4 -4 9 7 7 16 9 17
9 3 1 -9 6 -20 13 -24 7 -5 8 -3 3 7 -7 11 -5 11 10 -1 10 -8 26 -14 37 -12
10 2 18 -2 18 -8 0 -6 4 -8 10 -5 5 3 10 1 10 -5 0 -6 5 -8 10 -5 6 3 10 0 10
-7 0 -10 2 -10 9 1 6 8 10 9 12 2 2 -6 19 -12 37 -14 17 -2 35 -7 40 -12 4 -5
1 -5 -7 0 -9 5 -12 4 -7 -3 5 -8 15 -8 33 -1 23 8 24 8 13 -6 -14 -17 0 -21
17 -4 7 7 14 6 24 -4 8 -7 20 -12 28 -9 9 3 11 0 6 -8 -6 -10 -3 -12 10 -7 9
4 25 2 33 -5 12 -10 14 -10 8 -1 -5 10 -1 11 17 4 14 -6 28 -7 33 -3 4 4 3 1
-1 -7 -6 -11 -4 -13 8 -8 22 8 49 -2 41 -15 -4 -6 2 -5 14 1 14 8 23 8 27 1 5
-8 12 -7 23 2 13 11 14 11 7 -1 -6 -11 -4 -13 8 -8 10 4 20 0 26 -11 11 -19
20 -20 32 0 7 11 9 11 9 -1 0 -11 3 -11 15 -1 13 11 14 10 10 -2 -5 -12 0 -15
25 -12 21 3 29 0 24 -8 -5 -7 -3 -8 6 -3 16 10 59 13 58 5 -1 -16 5 -18 32
-10 25 7 30 6 31 -8 0 -14 2 -13 9 3 5 11 9 14 9 8 1 -7 6 -13 12 -13 5 0 7 4
4 10 -3 6 1 7 9 4 9 -3 14 -10 11 -14 -2 -4 6 -7 20 -7 14 0 22 3 20 7 -7 11
22 6 32 -5 4 -4 2 -5 -6 0 -9 5 -12 4 -7 -3 8 -13 36 -5 36 12 0 6 5 3 11 -7
8 -13 14 -15 29 -7 13 7 21 7 26 -2 5 -7 3 -8 -6 -3 -9 5 -11 4 -6 -3 4 -7 15
-8 30 -2 12 4 28 5 35 0 7 -4 28 -4 47 0 19 4 36 4 39 0 5 -8 48 -5 63 4 6 4
8 -3 4 -16 -4 -18 -2 -20 13 -14 18 6 18 6 3 -11 -14 -16 -15 -21 -3 -37 9
-12 11 -25 5 -35 -5 -10 -4 -24 1 -34 7 -11 7 -17 0 -17 -6 0 -6 -11 -1 -29 6
-23 5 -31 -7 -35 -12 -5 -11 -11 8 -38 18 -25 19 -30 6 -25 -11 4 -14 2 -10
-8 3 -8 10 -12 15 -9 6 4 8 1 6 -7 -3 -8 -1 -23 5 -34 10 -19 9 -19 -8 -5 -10
8 -16 10 -12 4 3 -6 9 -25 12 -43 4 -24 2 -31 -6 -25 -8 5 -9 3 -4 -7 11 -17
12 -50 2 -66 -4 -6 -2 -15 4 -19 8 -5 9 -3 4 6 -6 9 -4 11 5 5 10 -6 9 -11 -5
-22 -11 -7 -13 -13 -6 -13 7 0 9 -5 5 -12 -5 -8 -2 -9 11 -4 15 5 16 4 5 -9
-10 -12 -10 -15 1 -15 12 0 12 -2 1 -9 -8 -4 -14 -12 -13 -17 0 -5 -7 -8 -15
-8 -10 1 -12 -2 -5 -10 7 -8 4 -12 -10 -13 -12 -1 -17 3 -13 10 3 7 -1 4 -9
-5 -15 -18 -33 -25 -23 -9 3 5 -1 12 -10 15 -8 3 -13 2 -10 -3 3 -4 -8 -8 -25
-9 -19 0 -27 3 -23 10 4 7 2 8 -5 4 -8 -5 -9 -12 -2 -20 7 -8 5 -12 -9 -12
-10 0 -16 5 -12 11 3 5 -1 4 -10 -3 -9 -7 -19 -9 -22 -4 -6 10 -36 9 -55 -2
-8 -5 -16 -4 -21 4 -6 10 -9 9 -13 -1 -4 -11 -6 -11 -6 -1 -1 10 -4 10 -15 0
-8 -7 -11 -17 -8 -23 3 -5 -2 -4 -11 4 -14 11 -20 11 -34 0 -11 -10 -14 -10
-9 -2 4 8 1 13 -9 13 -10 0 -13 -5 -9 -12 5 -9 2 -9 -9 1 -14 11 -17 11 -17 0
0 -11 -2 -11 -10 1 -6 10 -10 11 -10 3 0 -7 -7 -13 -16 -13 -9 0 -12 -5 -8
-12 6 -10 4 -10 -7 -1 -17 17 -49 17 -49 1 0 -8 -3 -9 -8 -3 -9 13 -35 18 -27
6 4 -7 -19 -10 -61 -9 -46 1 -69 -2 -72 -11 -3 -9 -7 -9 -20 1 -12 10 -14 10
-8 1 9 -16 -6 -17 -22 -1 -9 9 -13 7 -18 -6 -6 -15 -7 -16 -19 0 -9 14 -14 14
-20 4 -6 -9 -4 -11 5 -5 9 5 11 4 6 -3 -5 -9 -13 -9 -27 -2 -15 9 -19 7 -19
-7 0 -15 -2 -15 -16 3 -8 10 -13 14 -10 8 3 -7 -1 -14 -9 -18 -8 -3 -15 0 -15
6 0 7 -4 7 -13 -1 -10 -8 -17 -7 -26 2 -10 9 -12 9 -9 -3 2 -11 -4 -14 -21
-12 -15 2 -21 0 -17 -7 4 -6 0 -11 -8 -11 -8 0 -18 -5 -22 -12 -4 -7 -3 -8 4
-4 11 7 17 -6 13 -27 -1 -5 3 -6 9 -2 5 3 19 1 31 -6 12 -6 19 -7 16 -2 -4 5
0 10 8 10 8 0 12 -4 9 -9 -3 -4 1 -8 9 -8 8 0 18 -7 21 -16 3 -8 2 -12 -3 -9
-5 3 -12 -3 -15 -13 -7 -19 -36 -26 -36 -8 0 5 -6 2 -13 -9 -8 -10 -19 -15
-26 -11 -7 5 -21 0 -33 -11 -12 -10 -18 -12 -13 -4 5 9 3 12 -6 9 -8 -3 -13
-11 -11 -18 2 -10 -1 -10 -14 1 -16 12 -17 12 -12 -2 5 -12 2 -16 -11 -12 -10
3 -29 -6 -43 -19 -21 -19 -24 -28 -16 -47 8 -22 7 -23 -9 -10 -15 12 -15 10 1
-8 10 -13 22 -20 27 -18 4 3 15 -2 23 -11 12 -12 16 -12 17 -2 0 7 4 4 9 -7 5
-11 9 -14 9 -6 1 9 10 12 31 9 17 -3 30 0 30 6 0 6 5 4 11 -4 8 -11 12 -12 16
-2 2 6 9 9 14 6 6 -3 17 0 26 8 14 11 16 11 8 -2 -6 -12 -5 -13 6 -2 17 16 32
16 24 -1 -4 -6 1 -3 9 7 15 19 16 19 16 2 0 -14 3 -16 13 -8 15 13 29 13 45 0
10 -8 11 -6 5 8 -6 17 -5 18 12 4 10 -8 16 -10 12 -4 -4 7 0 15 9 18 24 9 27
8 20 -11 -6 -14 -3 -14 15 3 14 11 19 13 14 4 -8 -13 -7 -13 8 -1 13 10 17 10
17 1 0 -10 3 -10 15 0 14 12 20 7 16 -14 -1 -5 5 -4 13 3 8 7 21 9 27 5 8 -4
9 -3 5 4 -4 7 -2 12 3 12 6 0 11 -6 11 -12 0 -9 4 -8 10 2 9 13 10 13 10 0 0
-13 1 -13 10 0 8 12 10 12 10 1 0 -8 8 -4 20 10 11 13 20 20 19 14 -3 -24 2
-27 17 -9 13 16 15 16 10 1 -3 -9 -1 -17 4 -17 6 0 10 5 10 11 0 8 4 9 13 0 8
-6 17 -8 20 -4 4 3 27 5 52 4 25 -1 52 -1 60 -1 8 0 35 0 59 1 24 1 50 -2 57
-6 11 -7 12 -5 4 6 -5 8 -3 7 6 -3 9 -9 19 -15 22 -12 2 3 7 -2 10 -11 4 -8 2
-15 -4 -15 -6 0 -9 -7 -5 -15 3 -8 1 -15 -5 -15 -6 0 -8 -7 -5 -16 3 -8 2 -13
-3 -10 -5 3 -11 -1 -15 -9 -3 -8 -2 -14 2 -14 4 1 14 1 22 0 13 -1 13 -2 0
-11 -13 -9 -13 -11 0 -20 13 -8 13 -10 1 -10 -11 0 -9 -4 4 -14 11 -8 23 -12
27 -10 5 3 14 2 20 -2 16 -10 48 -13 43 -4 -3 4 6 8 20 8 14 0 22 -4 19 -9 -2
-4 8 -2 22 6 18 9 33 11 44 5 9 -5 22 -5 30 0 10 6 23 4 39 -6 13 -9 21 -11
17 -6 -4 6 2 10 13 9 11 0 17 -5 15 -9 -3 -4 4 -8 15 -8 12 0 21 -6 21 -14 0
-8 6 -17 13 -19 9 -4 8 -6 -2 -6 -11 -1 -11 -4 0 -18 10 -11 10 -14 2 -9 -7 4
-13 3 -13 -3 0 -5 6 -12 13 -15 6 -4 2 -4 -11 -2 -19 4 -21 2 -11 -10 10 -13
6 -18 -14 -15 -4 0 -6 -2 -6 -6 3 -20 -2 -34 -11 -28 -9 5 -15 -16 -11 -38 1
-5 -3 -6 -8 -3 -5 3 -11 -1 -14 -8 -3 -8 -1 -17 6 -20 7 -2 2 -5 -11 -5 -13
-1 -20 -5 -17 -11 4 -6 12 -8 18 -4 7 3 3 -2 -8 -12 -20 -16 -20 -16 2 -11 14
3 20 1 17 -7 -6 -16 26 -17 45 -2 10 8 13 8 8 0 -4 -7 6 -10 27 -10 19 1 32 5
28 10 -3 5 2 7 11 3 12 -4 15 -1 12 15 -3 11 -2 18 2 14 3 -3 13 0 21 7 13 10
14 9 7 -3 -8 -13 -7 -13 9 -1 9 8 15 20 12 27 -3 9 3 11 21 8 20 -4 24 -2 19
12 -4 12 -2 15 9 10 8 -3 15 -1 15 3 0 5 12 8 26 6 14 -1 31 4 38 11 8 7 16
10 20 7 3 -4 6 0 6 7 0 11 3 11 12 2 9 -9 14 -7 24 6 10 13 13 13 14 3 0 -9 8
-6 21 10 l21 24 -7 -23 c-6 -21 -5 -23 13 -13 12 6 24 16 27 21 4 6 11 7 17 4
17 -11 68 -10 68 0 0 5 8 2 17 -5 15 -12 16 -12 10 5 -6 15 -5 17 6 8 10 -9
19 -7 37 5 13 9 20 12 17 6 -4 -7 3 -10 18 -9 14 0 25 6 25 11 0 6 4 4 9 -4 8
-12 12 -12 24 -2 11 8 16 9 19 1 2 -8 11 -8 31 -1 18 7 26 7 22 1 -8 -13 11
-13 36 0 13 8 19 7 19 0 0 -7 6 -8 19 0 12 6 22 6 25 1 7 -11 25 -9 45 3 9 6
12 5 8 -1 -4 -6 0 -13 8 -17 8 -3 15 0 15 6 0 7 6 4 13 -7 10 -13 16 -15 21
-6 6 9 11 9 22 0 8 -6 14 -7 14 -2 0 5 7 10 15 10 8 0 11 -5 8 -10 -4 -6 3 -8
16 -4 14 3 24 0 28 -9 3 -8 13 -14 24 -14 26 0 69 -21 63 -32 -3 -5 -2 -8 3
-7 19 3 34 -2 29 -9 -3 -5 6 -15 19 -22 14 -7 27 -22 31 -32 5 -16 8 -17 22
-6 12 10 14 10 8 0 -10 -16 5 -15 40 3 16 8 23 15 15 15 -11 0 -9 4 5 15 14
11 15 14 4 15 -12 0 -12 2 -1 9 7 5 13 25 13 45 0 20 5 36 12 37 6 0 2 4 -9 9
-11 5 -15 9 -9 9 7 1 15 8 18 17 3 9 2 12 -5 9 -6 -4 -9 7 -8 32 2 21 0 44 -4
50 -4 7 -2 15 4 19 8 5 9 3 4 -6 -5 -8 -4 -11 3 -6 7 4 6 14 -3 33 -13 24 -12
30 1 51 9 14 11 21 5 18 -7 -5 -11 1 -11 14 0 14 -4 19 -12 14 -9 -5 -9 -2 1
9 13 16 8 22 -13 18 -5 -1 -4 4 2 12 9 10 9 17 -1 26 -9 10 -8 11 6 5 15 -5
16 -3 8 19 -5 14 -7 28 -3 32 4 4 2 6 -3 5 -21 -5 -29 1 -16 9 9 6 11 15 6 27
-5 11 -7 24 -5 29 8 28 7 56 -1 61 -5 3 -5 13 1 25 8 13 7 19 0 19 -6 0 -8 5
-5 10 13 21 15 60 4 60 -8 0 -7 6 2 17 11 13 11 17 1 21 -10 3 -10 7 0 20 11
12 11 16 0 20 -10 3 -10 7 -1 18 10 12 8 18 -7 29 -15 12 -15 14 -2 9 16 -6
19 10 6 31 -4 6 -3 17 3 25 12 20 11 33 -2 24 -8 -4 -8 -1 -1 12 10 21 10 89
0 100 -4 4 -3 15 3 25 7 13 6 19 -1 19 -7 0 -8 6 0 19 13 25 13 44 0 36 -6 -4
-6 4 1 22 7 20 7 29 -1 31 -7 3 -7 9 2 20 11 12 11 16 0 20 -10 3 -10 7 0 20
11 12 11 16 0 20 -10 3 -10 7 -1 19 10 12 10 16 -2 24 -8 5 -9 9 -4 9 6 0 12
12 13 28 1 22 0 24 -9 12 -9 -12 -9 -11 -4 5 12 33 14 65 4 71 -5 3 -5 12 0
22 6 11 5 25 -1 36 -9 16 -8 18 5 13 12 -4 14 -2 10 10 -4 10 -2 14 4 10 6 -4
13 0 17 8 3 8 14 15 25 15 28 0 52 11 45 21 -3 5 2 6 10 3 9 -3 13 -10 10 -15
-10 -17 5 -9 27 13 12 13 18 16 14 8 -8 -13 -7 -13 8 -1 14 11 17 11 17 0 1
-10 4 -9 14 3 15 21 30 24 21 6 -4 -7 1 -4 9 6 9 11 16 14 16 8 0 -7 5 -12 11
-12 6 0 9 6 6 14 -4 10 3 13 24 11 16 -1 26 2 23 7 -3 5 0 9 7 7 26 -3 40 1
35 10 -3 5 8 7 24 6 18 -2 27 1 23 8 -3 5 0 7 8 5 8 -3 26 4 42 14 15 11 27
15 27 9 0 -11 6 -9 59 18 19 10 22 10 15 -1 -4 -7 2 -4 14 6 12 11 22 15 22
11 0 -5 5 -4 12 3 8 8 17 8 31 1 14 -8 18 -8 13 0 -4 6 -2 11 4 11 6 0 8 6 4
13 -6 9 -4 9 7 -1 16 -15 33 -16 23 0 -4 7 -3 8 5 4 6 -4 18 0 27 8 9 10 26
14 40 12 16 -3 27 0 31 10 3 7 9 11 14 8 5 -3 9 0 9 6 0 6 5 8 12 4 8 -5 9 -2
5 10 -6 14 -3 15 13 6 16 -9 20 -8 20 7 0 15 2 16 10 3 8 -13 10 -12 10 3 0
15 4 16 20 7 16 -9 19 -8 13 6 -4 12 -3 15 5 10 7 -4 12 -2 12 4 0 7 7 9 16 6
11 -4 18 1 21 15 3 12 11 18 19 15 9 -3 14 1 14 12 0 15 2 15 10 2 9 -13 14
-7 11 12 0 5 4 8 10 8 5 0 7 6 3 13 -5 8 -2 8 9 -2 15 -12 17 -11 17 5 0 13 3
15 8 7 6 -9 15 -4 32 16 13 16 29 27 37 24 9 -4 11 0 6 13 -4 12 -3 15 5 10 7
-4 12 -2 12 3 0 6 3 10 8 10 19 -3 33 2 27 11 -3 6 -1 10 5 10 6 0 8 5 5 10
-4 6 -3 10 2 9 21 -4 32 2 27 15 -4 11 0 13 18 9 18 -4 20 -3 8 6 -13 9 -12
12 7 17 13 4 21 10 18 14 -3 4 2 11 11 14 8 3 12 10 9 16 -4 6 1 7 11 3 12 -4
15 -3 10 5 -4 7 -1 12 9 12 11 0 15 5 11 16 -3 8 -2 13 2 10 5 -3 15 4 22 15
8 10 21 19 30 19 13 0 13 1 0 10 -13 8 -12 10 3 10 15 0 21 11 18 32 0 4 7 4
16 1 13 -5 15 -2 10 16 -5 19 -3 20 9 10 12 -10 15 -10 12 1 -2 8 2 14 9 15
13 0 27 13 29 26 1 5 2 14 3 20 0 5 5 8 10 4 6 -3 8 3 6 14 -3 15 1 19 17 16
16 -3 17 -1 8 10 -7 9 -8 15 0 20 5 3 10 3 10 -1 0 -4 9 1 19 10 11 10 17 24
14 32 -3 8 1 14 11 14 10 0 13 5 9 17 -5 12 -2 15 10 10 12 -4 14 -2 10 10 -5
12 -3 14 7 8 10 -6 12 -4 7 8 -3 10 -2 17 3 17 6 0 9 5 8 11 -2 6 3 14 11 17
9 3 11 0 6 -8 -5 -8 -4 -11 3 -6 6 3 9 15 7 26 -3 14 2 20 13 20 15 0 15 2 2
10 -13 8 -12 10 3 10 9 0 17 5 17 11 0 5 -5 7 -12 3 -7 -5 -8 -3 -2 7 5 8 9
17 9 21 0 3 4 10 9 15 5 4 6 3 2 -4 -3 -6 -3 -14 1 -16 5 -3 17 15 28 39 11
24 24 44 28 44 5 0 4 7 -3 16 -8 8 -9 14 -4 13 23 -4 36 2 31 15 -3 8 1 17 10
20 9 4 13 9 10 13 -4 3 1 12 11 19 11 9 13 13 4 14 -10 0 -10 3 0 14 7 8 18
11 23 8 6 -3 3 3 -5 13 -9 11 -10 16 -2 11 7 -4 12 -1 12 9 0 9 5 13 11 9 7
-4 10 -1 7 7 -3 8 2 20 11 27 13 11 13 12 1 7 -8 -4 -4 3 10 15 14 12 19 19
13 15 -9 -4 -11 -1 -7 9 3 9 10 13 15 10 5 -3 6 2 3 10 -3 9 -1 16 5 16 7 0
11 8 9 18 -2 9 2 16 9 15 7 -2 10 6 8 17 -2 12 0 18 6 15 12 -8 40 20 37 37
-2 9 6 12 25 11 15 -1 25 2 22 7 -4 6 1 10 10 10 10 0 13 5 9 12 -5 8 -1 9 12
4 15 -5 16 -4 7 5 -9 9 -5 17 15 36 15 14 21 22 15 18 -7 -3 -13 -4 -13 0 0 3
11 10 24 15 27 10 59 66 49 84 -4 6 1 5 11 -3 9 -8 16 -10 15 -5 -4 22 2 45
10 40 5 -4 7 3 4 14 -3 12 0 20 7 20 7 0 10 7 6 15 -4 10 1 15 17 16 12 0 17
3 10 5 -7 3 -9 12 -6 20 3 7 9 11 14 8 5 -3 9 0 9 6 0 6 5 8 12 4 7 -4 8 -3 4
5 -4 6 -13 9 -19 5 -7 -3 -4 1 5 9 10 8 15 17 11 20 -3 4 0 7 8 7 11 0 11 2
-1 10 -8 5 -11 10 -7 10 4 0 2 6 -5 14 -9 10 -17 11 -25 4 -9 -7 -13 -7 -13 2
0 7 -7 10 -16 6 -8 -3 -13 -2 -9 3 3 5 -1 12 -7 14 -10 4 -10 6 0 6 7 1 10 6
7 11 -3 6 -1 10 5 10 6 0 8 5 5 10 -3 6 -1 10 4 10 6 0 11 7 11 16 0 9 -5 12
-12 8 -7 -4 -8 -3 -4 4 4 7 14 12 23 12 13 0 14 2 2 17 -12 14 -12 16 0 8 11
-6 13 -3 9 13 -4 12 -2 20 3 16 5 -3 9 4 9 16 0 12 4 18 10 15 5 -3 8 0 5 7
-5 16 20 52 32 45 10 -6 34 19 25 27 -3 4 4 9 17 13 13 3 20 11 17 19 -3 8 -2
13 2 13 20 -3 33 2 27 11 -3 6 -1 10 4 10 6 0 11 5 11 11 0 5 -5 7 -12 3 -7
-5 -8 -3 -2 7 12 20 14 40 3 33 -5 -3 -9 1 -9 8 0 9 -3 9 -10 -2 -8 -13 -10
-13 -10 2 0 12 -6 15 -22 10 -18 -4 -20 -2 -16 16 4 12 2 25 -4 28 -5 3 -1 12
9 20 13 10 14 13 4 14 -15 0 -6 14 10 16 22 3 23 5 9 14 -10 6 -11 10 -2 10 6
0 12 9 12 21 0 13 5 19 13 16 10 -4 12 3 9 24 -3 20 0 29 9 29 11 0 11 2 -1
10 -8 5 -10 10 -3 10 12 0 12 24 0 36 -3 4 -2 15 3 25 7 12 7 20 0 24 -6 4 -8
11 -5 16 4 5 -1 9 -10 9 -10 0 -13 5 -9 12 5 8 2 9 -10 5 -9 -4 -15 -3 -11 2
3 6 -3 14 -12 20 -14 8 -15 10 -3 11 9 0 11 3 5 8 -5 4 -17 16 -25 26 -13 18
-13 19 0 11 12 -6 13 -5 3 6 -7 7 -13 24 -13 39 0 20 -2 22 -10 10 -8 -13 -10
-12 -10 3 0 10 -4 15 -10 12 -5 -3 -10 1 -10 10 0 9 -4 13 -10 10 -6 -3 -10
-2 -10 3 0 9 -8 11 -60 14 -16 1 -30 6 -31 12 0 6 -4 1 -10 -12 -5 -13 -14
-20 -20 -17 -5 4 -17 -1 -25 -11 -9 -11 -13 -14 -10 -8 3 6 -1 11 -9 11 -8 0
-12 -8 -10 -20 3 -14 0 -17 -13 -12 -13 5 -14 4 -5 -6 9 -9 9 -18 2 -32 -6
-10 -8 -28 -6 -39 5 -16 3 -17 -10 -6 -15 12 -15 11 -4 -11 10 -18 10 -25 1
-31 -9 -5 -9 -9 -1 -14 6 -4 11 -4 11 1 0 4 5 1 10 -7 8 -12 10 -12 10 5 0 11
4 16 8 10 4 -5 14 -11 22 -13 12 -3 13 -1 3 9 -7 7 -13 18 -13 24 0 5 4 4 9
-3 6 -10 14 -6 31 17 22 27 25 28 38 13 10 -13 12 -13 7 -2 -4 10 -2 9 8 -2 8
-10 17 -15 20 -11 4 3 8 2 8 -3 7 -54 7 -64 -1 -59 -6 4 -7 -2 -3 -11 5 -13 3
-16 -10 -11 -12 4 -15 1 -12 -14 2 -11 0 -17 -6 -14 -5 4 -9 1 -9 -4 0 -6 -7
-11 -15 -11 -8 0 -15 -7 -15 -15 0 -9 -6 -12 -17 -8 -12 5 -14 3 -8 -7 6 -10
4 -12 -8 -7 -10 3 -17 2 -17 -2 0 -5 -7 -12 -16 -15 -14 -5 -15 -4 -4 9 11 14
10 15 -11 7 -13 -5 -30 -7 -36 -5 -7 3 -13 -1 -13 -9 -1 -9 -4 -8 -10 4 -6 10
-18 14 -30 11 -11 -3 -20 -1 -20 5 0 6 -9 8 -20 5 -15 -4 -20 0 -20 13 0 17
-1 17 -16 -2 -8 -10 -13 -14 -10 -7 4 6 2 14 -4 18 -5 3 -10 0 -10 -7 0 -8 -3
-9 -8 -3 -9 12 -29 17 -65 17 -18 -1 -25 3 -20 11 3 7 -3 4 -14 -6 -16 -14
-23 -15 -29 -6 -5 8 -3 10 6 4 9 -5 11 -4 6 4 -6 9 -11 9 -22 0 -13 -11 -18
-6 -15 14 1 4 -7 4 -16 0 -28 -13 -63 -9 -73 7 -8 13 -10 13 -10 -1 0 -16 -26
-19 -48 -5 -6 4 -12 4 -12 -1 0 -4 -18 -8 -40 -8 -28 0 -40 4 -41 15 -1 8 -5
4 -9 -10 -6 -17 -8 -19 -9 -7 -1 15 -5 16 -21 7 -14 -8 -20 -8 -20 0 0 7 -7 7
-22 -1 -18 -10 -20 -9 -14 6 5 14 3 15 -6 7 -21 -16 -54 -18 -72 -3 -14 12
-16 12 -11 -1 6 -16 -20 -18 -43 -4 -6 4 -12 4 -12 -1 0 -4 -18 -8 -40 -8 -28
0 -40 4 -41 15 -1 8 -5 4 -9 -10 -6 -17 -8 -19 -9 -7 -1 15 -5 16 -21 7 -14
-8 -20 -8 -20 0 0 8 -6 8 -17 1 -13 -7 -23 -5 -36 7 -17 15 -17 15 -11 -4 7
-17 6 -18 -11 -4 -11 9 -16 10 -11 3 4 -7 2 -13 -3 -13 -6 0 -11 6 -11 13 0 8
-3 7 -10 -3 -7 -12 -10 -11 -16 5 -7 18 -8 18 -15 -1 -7 -17 -8 -17 -8 -1 -1
20 -37 24 -44 5 -4 -10 -6 -10 -6 0 -1 15 -31 16 -31 0 0 -6 -7 -3 -16 8 -8
10 -13 14 -10 8 3 -7 -1 -15 -10 -18 -9 -4 -13 -2 -8 5 4 7 0 9 -14 5 -11 -4
-23 -2 -27 4 -3 6 -11 8 -16 5 -5 -4 -9 -2 -9 3 0 6 -7 12 -14 15 -10 4 -13 1
-9 -9 3 -7 0 -14 -6 -14 -6 0 -11 4 -11 8 0 10 -51 9 -68 -2 -7 -4 -12 -3 -12
2 0 6 -7 13 -16 16 -10 4 -13 2 -8 -7 4 -6 -3 -3 -16 8 -13 11 -20 15 -17 9 4
-7 0 -15 -9 -18 -10 -4 -13 -2 -8 6 5 8 -2 9 -22 4 -19 -4 -24 -3 -15 2 20 14
-7 21 -42 11 -15 -4 -25 -4 -22 1 3 4 -5 8 -18 8 -43 0 -107 15 -107 25 0 6
-5 5 -13 -2 -10 -8 -17 -7 -25 1 -8 8 -15 8 -26 -1 -11 -9 -16 -9 -22 0 -5 8
-3 9 6 4 9 -5 11 -4 6 3 -5 9 -13 9 -27 2 -14 -8 -19 -8 -17 1 2 8 -9 13 -28
13 -17 1 -39 8 -49 16 -11 9 -16 10 -11 3 4 -7 2 -13 -3 -13 -6 0 -11 5 -11
11 0 5 -4 7 -10 4 -5 -3 -10 -2 -10 2 0 5 -9 9 -20 9 -14 0 -19 -5 -15 -16 3
-8 -6 -3 -20 13 -22 23 -45 29 -45 11 0 -3 4 -3 9 1 5 3 12 1 15 -4 9 -13 -19
-8 -38 8 -8 7 -20 10 -25 7 -5 -4 -12 -2 -16 4 -3 5 -15 10 -26 10 -12 0 -17
4 -13 11 5 8 1 8 -14 0 -16 -8 -21 -7 -26 5 -5 12 -10 13 -27 3 -19 -10 -21
-9 -16 5 5 14 3 15 -13 6 -16 -9 -18 -8 -13 6 5 14 3 15 -14 5 -18 -9 -22 -7
-26 11 -5 17 -9 19 -20 10 -11 -10 -17 -9 -28 4 -8 10 -23 14 -40 12 -16 -3
-26 -1 -23 4 3 4 1 8 -5 8 -5 0 -12 8 -14 18 -4 16 -5 16 -6 0 -1 -22 -21 -24
-21 -3 0 14 -19 19 -65 17 -11 0 -14 2 -8 4 10 4 10 9 -1 20 -17 17 -30 19
-20 3 5 -8 1 -8 -13 0 -11 6 -23 7 -27 3 -4 -3 -4 2 0 13 7 17 5 18 -7 8 -12
-10 -17 -8 -27 8 -14 22 -37 25 -46 7 -4 -7 -4 -3 -2 10 3 16 1 21 -7 14 -22
-16 -63 1 -50 21 4 7 -2 5 -12 -3 -11 -9 -16 -10 -11 -2 5 8 -1 12 -21 13 -15
0 -22 3 -14 6 17 7 -46 37 -71 34 -10 -1 -18 3 -18 10 0 7 -8 9 -21 6 -16 -4
-19 -2 -15 10 6 14 4 14 -11 2 -11 -9 -14 -10 -9 -1 4 7 1 12 -8 12 -9 0 -16
5 -16 11 0 7 -9 9 -21 6 -16 -4 -18 -3 -9 8 10 11 8 13 -9 10 -12 -2 -21 0
-21 5 0 4 -8 6 -18 4 -9 -3 -27 4 -39 15 -15 14 -23 17 -26 8 -4 -9 -6 -9 -6
1 -1 8 -6 10 -13 6 -10 -6 -10 -5 -1 7 9 12 6 14 -20 16 -71 4 -101 17 -89 38
2 6 -1 4 -9 -2 -16 -15 -33 -17 -24 -3 4 6 -6 10 -24 10 -16 0 -33 5 -37 11
-3 6 -15 9 -25 6 -10 -3 -18 -2 -17 2 2 18 -4 22 -17 11 -11 -9 -15 -9 -15 -1
0 7 -5 9 -10 6 -6 -3 -10 1 -10 10 0 9 -5 13 -10 10 -6 -4 -8 -10 -6 -14 3 -4
-1 -8 -9 -8 -8 0 -15 6 -15 13 0 7 -5 16 -12 20 -6 4 -8 3 -4 -4 3 -6 2 -13
-3 -16 -5 -3 -11 0 -14 8 -4 9 -15 12 -33 8 -15 -3 -24 -1 -21 4 3 5 -11 9
-31 9 -21 0 -43 6 -50 13 -8 7 -17 10 -22 7 -4 -3 -13 2 -20 10 -10 12 -10 18
1 32 10 11 10 14 2 9 -9 -5 -13 2 -13 23 0 17 5 31 10 31 6 0 10 5 10 11 0 5
-4 8 -8 5 -5 -3 -9 1 -9 9 0 8 4 12 8 10 11 -8 18 20 8 36 -14 22 -11 32 8 25
15 -6 15 -4 -2 14 -11 12 -13 20 -6 20 7 0 9 5 6 10 -4 6 -12 8 -18 4 -7 -3
-3 2 7 10 11 9 16 16 12 16 -5 0 -2 7 5 17 17 20 17 16 -1 38 -9 11 -10 16 -2
11 7 -4 12 -2 12 6 0 8 -6 20 -12 27 -8 9 -8 11 -2 8 7 -4 15 1 19 11 12 27
14 43 4 36 -5 -3 -9 -1 -9 5 0 5 5 13 11 16 6 5 4 12 -8 21 -12 10 -13 12 -3
9 11 -4 16 2 18 17 4 38 7 52 16 67 6 10 5 12 -2 7 -7 -4 -12 -3 -12 1 0 5 9
14 20 21 20 12 20 13 3 39 -10 15 -12 24 -5 20 6 -5 12 -4 12 0 0 5 -6 15 -12
22 -7 7 -8 12 -3 11 22 -5 29 1 15 10 -10 6 -11 10 -2 10 6 0 12 7 12 15 0 8
-4 15 -10 15 -5 0 -1 9 11 21 17 17 18 23 7 37 -11 13 -11 15 5 9 21 -8 22 -3
1 17 -9 9 -11 16 -4 16 6 0 8 4 5 10 -4 6 1 7 11 3 14 -5 15 -3 6 14 -8 15 -8
23 1 33 9 10 9 11 0 6 -9 -5 -11 -2 -7 8 3 9 9 14 13 11 4 -2 8 2 8 10 0 8 -5
12 -10 8 -5 -3 -1 7 9 23 18 29 18 29 -1 14 -20 -15 -20 -15 0 8 16 19 17 26
7 43 -10 16 -10 20 3 25 8 4 14 11 13 18 -1 6 4 22 11 35 7 13 8 21 2 17 -7
-5 -9 -1 -5 8 3 9 10 13 15 10 15 -9 5 20 -11 33 -13 11 -13 12 1 7 20 -6 34
11 18 22 -8 5 -9 3 -4 -6 6 -9 4 -11 -5 -5 -10 6 -9 11 5 22 11 7 15 13 11 13
-5 0 -2 8 5 17 10 11 10 14 2 9 -7 -4 -13 -5 -13 -1 0 5 4 14 31 66 6 12 6 18
1 15 -5 -3 -12 3 -15 13 -4 15 0 19 16 15 15 -2 18 -1 9 8 -7 7 -7 19 -2 34 5
13 5 26 1 29 -12 7 -1 45 13 45 6 0 4 4 -4 10 -12 7 -11 12 5 30 15 17 16 20
3 15 -13 -5 -15 -2 -11 14 3 11 9 18 14 15 5 -3 6 2 3 10 -3 9 -11 13 -16 10
-6 -4 -5 4 2 16 9 18 9 24 0 30 -9 6 -9 9 -1 15 9 5 9 11 -1 23 -10 12 -10 14
0 8 15 -9 16 8 1 36 -10 18 -9 20 7 14 15 -6 16 -4 7 5 -6 6 -9 18 -6 27 5 11
3 13 -8 7 -11 -7 -12 -6 -3 6 6 8 10 26 9 42 -1 15 3 27 9 27 6 0 3 5 -7 11
-14 8 -15 14 -6 31 9 16 8 23 -2 29 -8 5 -9 9 -4 9 17 0 12 40 -5 41 -9 0 -10
2 -3 5 8 4 9 13 4 27 -4 12 -6 28 -3 36 3 10 0 11 -9 5 -11 -6 -10 -3 1 11 11
14 11 17 1 11 -11 -7 -13 0 -9 32 3 34 1 39 -11 29 -12 -10 -12 -9 -2 12 9 16
10 21 1 16 -7 -4 -11 -1 -9 6 3 27 -1 40 -12 33 -8 -5 -8 -1 0 14 8 15 8 23
-1 28 -7 5 -8 3 -3 -6 5 -8 4 -11 -2 -7 -6 4 -10 17 -9 29 1 13 -5 29 -14 36
-8 8 -9 11 -3 7 17 -8 4 26 -16 43 -13 11 -13 12 -1 7 10 -4 9 -2 -2 8 -10 8
-15 17 -11 20 3 4 -2 7 -12 7 -15 0 -16 2 -4 17 12 14 12 16 0 8 -11 -6 -13
-4 -8 8 4 10 2 16 -6 14 -7 -1 -11 6 -11 15 1 11 -4 15 -15 10 -14 -5 -14 -4
-1 13 8 10 10 16 3 12 -7 -5 -17 1 -23 13 -6 12 -16 18 -23 13 -9 -5 -9 -3 0
8 10 12 8 18 -7 32 -11 9 -25 17 -30 17 -6 0 -10 5 -10 11 0 5 -6 7 -12 3 -9
-5 -9 -2 1 9 12 15 11 17 -8 17 -12 0 -19 5 -16 10 3 6 1 10 -5 10 -15 0 -40
25 -40 40 0 6 -4 8 -10 5 -5 -3 -10 -1 -10 5 0 6 -4 8 -10 5 -5 -3 -10 2 -10
12 0 15 -2 16 -10 3 -8 -13 -10 -12 -10 2 0 10 -6 17 -12 15 -7 -1 -12 3 -11
10 2 7 -6 10 -17 8 -12 -2 -20 2 -20 10 0 8 -5 17 -12 21 -7 5 -8 3 -3 -7 9
-15 -9 -3 -49 33 -10 10 -22 15 -26 13 -4 -3 -13 2 -20 10 -10 12 -16 13 -28
3 -13 -10 -14 -10 -8 0 5 8 0 12 -14 12 -13 0 -19 4 -14 12 5 7 3 8 -7 2 -24
-15 -42 -14 -29 1 9 10 3 12 -29 9 -22 -2 -43 1 -46 6 -4 6 1 7 12 4 14 -5 15
-4 4 4 -8 6 -25 6 -43 2 -16 -5 -26 -5 -23 0 3 5 -3 14 -14 20 -17 9 -19 8
-15 -5 5 -11 2 -14 -12 -8 -11 3 -22 11 -26 17 -5 7 -8 3 -8 -9 0 -11 -4 -15
-8 -10 -4 6 -14 12 -22 14 -30 9 -320 6 -320 -3 0 -4 -7 -3 -15 4 -13 11 -14
10 -9 -5z m708 -101 c3 -8 2 -12 -4 -9 -6 3 -10 10 -10 16 0 14 7 11 14 -7z
m-1284 -228 c0 -2 -7 -7 -16 -10 -8 -3 -12 -2 -9 4 6 10 25 14 25 6z m-670
-820 c0 -2 -8 -10 -17 -17 -16 -13 -17 -12 -4 4 13 16 21 21 21 13z m2340
-1100 c0 -11 -19 -15 -25 -6 -3 5 1 10 9 10 9 0 16 -2 16 -4z m3671 -2329
c-10 -9 -11 -8 -5 6 3 10 9 15 12 12 3 -3 0 -11 -7 -18z m-561 -821 c0 -3 -4
-8 -10 -11 -5 -3 -10 -1 -10 4 0 6 5 11 10 11 6 0 10 -2 10 -4z m-90 -120 c0
-3 -4 -8 -10 -11 -5 -3 -10 -1 -10 4 0 6 5 11 10 11 6 0 10 -2 10 -4z m-1975
-926 c4 0 4 4 1 8 -2 4 5 14 17 22 20 12 21 12 8 -3 -17 -21 -8 -22 13 -2 11
11 21 13 40 5 14 -5 26 -14 26 -20 0 -6 -6 -8 -12 -5 -7 4 -5 0 5 -8 10 -8 13
-17 8 -18 -7 -3 -6 -14 4 -32 8 -15 10 -25 5 -22 -6 4 -10 1 -10 -4 0 -6 4
-11 8 -11 10 0 9 -81 -1 -97 -4 -6 -3 -15 3 -18 8 -5 7 -12 -2 -23 -11 -13
-11 -14 1 -7 11 6 13 3 9 -12 -3 -11 -1 -29 5 -39 13 -23 17 -55 5 -48 -4 3
-6 -5 -4 -18 3 -13 5 -23 6 -23 1 0 3 -10 4 -22 1 -12 -4 -25 -12 -28 -11 -4
-12 -8 -2 -20 9 -11 9 -15 1 -15 -7 0 -10 -4 -6 -9 3 -5 1 -12 -5 -16 -5 -3
-10 -12 -10 -18 0 -7 4 -6 10 3 8 11 9 9 8 -12 -1 -16 -7 -28 -13 -28 -5 0 -4
-4 3 -8 7 -5 10 -16 6 -25 -3 -9 -11 -14 -16 -11 -7 5 -7 1 0 -12 8 -14 6 -21
-6 -32 -10 -7 -11 -11 -4 -7 15 8 15 3 -1 -29 -8 -14 -16 -23 -19 -20 -4 3 -9
0 -14 -7 -4 -7 -3 -10 4 -5 6 3 13 2 17 -4 3 -6 -3 -10 -15 -10 -15 0 -20 -5
-17 -14 4 -9 0 -13 -11 -11 -9 1 -20 -3 -24 -9 -6 -8 -11 -6 -18 4 -8 13 -10
13 -10 -1 0 -9 -7 -20 -16 -23 -9 -4 -13 -2 -8 5 8 13 -57 -31 -68 -46 -5 -6
-8 -5 -8 3 0 6 -5 12 -11 12 -5 0 -7 -5 -3 -11 4 -7 1 -10 -7 -7 -8 3 -19 -2
-26 -11 -9 -11 -12 -12 -13 -3 0 10 -3 10 -14 0 -8 -7 -12 -16 -9 -20 2 -5 0
-8 -6 -8 -5 0 -12 6 -14 13 -4 7 -8 3 -12 -10 -4 -13 -11 -20 -16 -17 -5 3 -7
11 -3 17 3 7 -1 4 -9 -6 -11 -14 -16 -15 -20 -5 -4 9 -6 7 -6 -4 -1 -11 -6
-15 -16 -12 -8 4 -17 -1 -21 -10 -3 -9 -10 -16 -16 -16 -5 0 -6 6 -2 13 5 8 3
8 -9 -2 -9 -7 -14 -18 -10 -25 4 -6 -1 -5 -10 3 -16 12 -22 8 -18 -12 1 -5 -4
-5 -11 -1 -19 12 -39 14 -32 3 3 -5 -3 -10 -13 -11 -10 0 -23 -2 -29 -2 -6 -1
-19 -9 -28 -19 -14 -14 -21 -15 -32 -6 -12 9 -13 9 -9 -4 4 -8 1 -18 -6 -23
-7 -4 -10 -3 -7 2 4 5 -5 10 -18 10 -13 1 -22 -2 -19 -6 3 -5 -4 -11 -14 -15
-14 -4 -18 -12 -14 -23 4 -10 -2 -7 -15 8 -15 17 -20 19 -16 7 5 -13 2 -16
-12 -10 -11 4 -15 3 -11 -4 5 -7 -4 -10 -22 -9 -17 1 -27 -2 -25 -9 3 -6 -8
-11 -26 -10 -25 0 -30 4 -28 20 2 13 10 20 25 19 12 0 20 3 17 7 -2 4 0 10 6
14 6 4 8 10 5 15 -3 4 3 7 13 6 9 0 16 5 15 11 -2 7 0 12 5 11 12 -3 67 29 65
39 -1 4 4 7 11 7 8 -1 12 6 9 17 -3 11 0 19 6 19 7 0 9 -6 5 -12 -5 -10 -3
-10 7 0 12 11 12 14 -1 22 -13 8 -13 10 1 10 19 0 32 37 17 47 -7 4 -8 1 -3
-7 5 -9 4 -11 -4 -6 -9 6 -9 11 0 22 6 8 8 14 4 14 -4 0 -1 8 6 17 8 9 9 14 3
10 -7 -4 -11 2 -11 18 0 15 4 22 11 19 6 -3 2 3 -9 13 -21 19 -25 39 -12 60 4
6 2 15 -4 19 -8 4 -7 9 2 15 11 7 10 9 -3 9 -9 0 -20 5 -24 12 -4 7 -3 8 4 4
13 -8 11 12 -2 49 -15 38 -15 45 -4 45 7 0 6 5 -2 15 -7 8 -9 15 -4 15 10 0
11 57 1 66 -3 3 -2 17 4 31 6 16 6 22 -1 18 -6 -3 -10 -1 -10 4 0 6 5 11 11
11 8 0 8 5 -1 15 -7 8 -9 15 -4 15 5 0 9 18 9 40 0 29 -4 40 -15 40 -13 0 -13
1 0 10 11 7 11 10 2 10 -14 0 -12 36 2 59 6 10 5 12 -2 7 -16 -10 -15 16 1 33
10 11 9 13 -5 8 -10 -4 -18 -2 -18 3 0 6 5 10 11 10 5 0 7 5 4 10 -3 6 -1 10
5 10 6 0 9 4 6 8 -2 4 4 8 14 8 10 0 16 -4 14 -8 -3 -4 -1 -8 5 -8 5 0 13 5
16 10 4 7 12 7 25 0 14 -7 23 -6 34 6 15 15 20 12 17 -11 -1 -5 7 0 18 13 13
15 21 18 24 10 3 -10 8 -9 22 2 10 8 16 10 12 4 -4 -7 2 -11 18 -11 14 0 25 4
25 10 0 6 7 2 15 -9 8 -10 15 -14 14 -9 -3 22 2 27 16 15 13 -11 14 -10 8 6
-6 17 -5 17 10 5 9 -7 17 -10 17 -5 0 11 51 10 68 0 7 -4 12 -3 12 2 0 6 9 8
20 5 13 -4 26 1 35 13 13 17 14 17 9 2 -3 -10 -1 -18 5 -18 6 0 11 4 11 9 0 5
9 11 20 14 14 4 20 0 21 -11 1 -15 2 -15 6 1 2 9 9 14 15 11 6 -4 14 0 19 7 8
12 11 12 19 -1 8 -13 10 -12 10 5 1 18 2 18 10 -2 5 -13 12 -23 15 -23z m-958
-276 c-3 -3 -12 -4 -19 -1 -8 3 -5 6 6 6 11 1 17 -2 13 -5z"/>
<path d="M2116 7663 c-6 -14 -5 -15 5 -6 7 7 10 15 7 18 -3 3 -9 -2 -12 -12z"/>
<path d="M1860 7360 c-9 -6 -10 -10 -3 -10 6 0 15 5 18 10 8 12 4 12 -15 0z"/>
<path d="M1311 5986 c-9 -11 -9 -16 1 -22 7 -4 10 -4 6 1 -4 4 -3 14 3 22 6 7
9 13 6 13 -2 0 -10 -6 -16 -14z"/>
<path d="M4310 4920 c0 -5 5 -10 11 -10 5 0 7 5 4 10 -3 6 -8 10 -11 10 -2 0
-4 -4 -4 -10z"/>
<path d="M1770 4839 c0 -5 5 -7 10 -4 6 3 10 8 10 11 0 2 -4 4 -10 4 -5 0 -10
-5 -10 -11z"/>
<path d="M1445 4519 c-4 -6 -5 -12 -2 -15 2 -3 7 2 10 11 7 17 1 20 -8 4z"/>
<path d="M5755 1750 c-3 -5 -1 -10 4 -10 6 0 11 5 11 10 0 6 -2 10 -4 10 -3 0
-8 -4 -11 -10z"/>
</g>
</svg>
